<?xml version="1.0" standalone="no"?>
<!DOCTYPE svg PUBLIC "-//W3C//DTD SVG 20010904//EN"
 "http://www.w3.org/TR/2001/REC-SVG-20010904/DTD/svg10.dtd">
<svg version="1.0" xmlns="http://www.w3.org/2000/svg"
 width="870.000000pt" height="870.000000pt" viewBox="0 0 870.000000 870.000000"
 preserveAspectRatio="xMidYMid meet">
<metadata>
Created by potrace 1.14, written by Peter Selinger 2001-2017
</metadata>
<g transform="translate(0.000000,870.000000) scale(0.100000,-0.100000)"
fill="#000000" stroke="none">
<path d="M3752 7833 c-6 -3 -9 -10 -5 -16 4 -7 1 -7 -9 1 -13 10 -18 10 -24 1
-5 -8 -3 -9 6 -4 9 5 11 4 6 -3 -5 -9 -13 -9 -27 -2 -14 8 -19 7 -19 -2 0 -9
-3 -9 -10 2 -6 10 -10 11 -10 3 0 -7 -6 -13 -14 -13 -8 0 -17 6 -19 13 -4 9
-6 9 -6 -1 -1 -7 -5 -10 -11 -7 -5 3 -10 0 -10 -7 0 -9 -3 -9 -10 2 -8 12 -10
12 -10 1 0 -10 -3 -11 -14 -2 -11 9 -16 9 -22 0 -4 -8 -3 -9 4 -5 7 4 12 2 12
-3 0 -13 -7 -13 -35 -2 -12 5 -25 3 -33 -6 -8 -8 -17 -11 -20 -8 -4 3 0 10 8
15 8 6 10 10 5 10 -6 0 -21 -7 -34 -16 -19 -14 -25 -14 -32 -3 -5 8 -9 9 -9 4
0 -6 4 -15 10 -21 6 -6 3 -10 -9 -10 -11 0 -17 4 -15 8 3 4 -2 5 -10 2 -9 -3
-15 -9 -14 -12 2 -20 -4 -23 -19 -11 -9 8 -14 9 -10 3 6 -11 -36 -30 -55 -26
-4 1 -5 -5 -2 -12 6 -16 -29 -39 -41 -28 -5 4 -5 1 -1 -6 4 -7 12 -9 18 -6 7
4 8 2 4 -4 -4 -7 -13 -12 -19 -12 -14 0 -37 -45 -33 -63 1 -7 1 -9 -1 -4 -9
15 -22 6 -18 -13 3 -13 0 -18 -7 -14 -7 5 -9 0 -6 -13 3 -12 0 -20 -7 -20 -7
0 -11 7 -8 16 4 14 3 14 -5 1 -8 -10 -8 -18 0 -27 8 -10 7 -12 -6 -7 -9 3 -16
1 -16 -6 0 -6 -5 -8 -11 -4 -8 4 -8 0 0 -15 10 -18 9 -20 -6 -14 -15 6 -16 4
-5 -9 10 -13 10 -17 -3 -22 -11 -4 -14 -2 -9 7 5 8 2 7 -9 -2 -18 -14 -23 -26
-8 -17 5 3 11 -1 14 -9 4 -9 1 -12 -7 -9 -8 3 -17 1 -21 -5 -3 -6 -1 -11 4
-11 6 0 11 -5 11 -11 0 -5 -4 -7 -10 -4 -5 3 -10 1 -10 -5 0 -6 -4 -8 -10 -5
-5 3 -10 1 -10 -4 0 -6 5 -11 12 -11 6 0 -1 -11 -17 -24 -20 -17 -24 -26 -15
-31 9 -5 11 -4 6 3 -4 7 -2 12 3 12 14 0 14 -13 -1 -28 -12 -12 -18 -113 -6
-106 4 2 10 -1 14 -7 4 -7 3 -9 -3 -6 -5 3 -17 -3 -26 -14 -9 -10 -13 -19 -8
-19 5 0 8 -8 6 -17 -2 -10 -4 -18 -5 -18 -1 0 -3 -12 -5 -27 -2 -16 3 -34 11
-43 14 -13 14 -15 0 -15 -13 0 -14 -5 -5 -26 9 -24 8 -26 -6 -14 -14 11 -16
11 -13 -1 2 -8 8 -17 13 -22 6 -4 3 -13 -9 -22 -11 -8 -14 -15 -8 -15 10 0 10
-5 2 -20 -10 -19 -7 -24 15 -21 6 1 1 -6 -9 -14 -17 -13 -15 -19 5 -17 3 1 6
-5 6 -13 0 -8 -3 -12 -7 -10 -4 2 -7 -2 -7 -10 0 -8 4 -12 8 -10 4 3 10 -2 13
-11 4 -10 2 -13 -7 -8 -9 5 -9 4 0 -6 6 -7 9 -19 6 -28 -5 -10 -2 -13 6 -8 9
6 12 0 9 -23 -2 -20 3 -35 12 -41 11 -7 12 -10 2 -10 -10 0 -10 -4 2 -16 21
-20 20 -34 -1 -35 -15 0 -15 -2 2 -9 11 -5 14 -9 7 -9 -9 -1 -10 -6 -3 -18 7
-12 5 -21 -7 -30 -10 -7 -12 -13 -7 -12 22 3 29 -2 15 -11 -12 -8 -12 -10 -1
-10 11 0 11 -3 1 -15 -10 -12 -9 -16 4 -21 9 -3 13 -10 10 -15 -3 -5 1 -9 10
-9 14 0 16 -23 3 -36 -10 -11 14 -35 27 -27 6 4 5 -1 -3 -11 -8 -9 -21 -14
-29 -11 -11 4 -12 2 -5 -7 6 -7 9 -21 8 -30 -2 -10 2 -18 8 -18 7 0 5 -5 -3
-10 -10 -6 -11 -10 -2 -10 6 0 12 -5 12 -11 0 -5 -5 -7 -11 -3 -8 4 -9 -1 -4
-17 3 -13 3 -19 -2 -14 -11 15 -39 12 -35 -4 1 -7 -2 -10 -7 -7 -14 9 -42 -5
-34 -17 4 -7 0 -8 -11 -4 -14 6 -16 3 -11 -16 7 -22 7 -22 -9 -2 -14 18 -15
18 -16 2 0 -10 -7 -20 -15 -23 -8 -4 -12 -11 -8 -18 4 -6 0 -6 -9 2 -11 9 -18
10 -23 2 -3 -5 -1 -10 4 -10 6 0 11 -5 11 -10 0 -7 -8 -6 -22 1 -20 11 -21 10
-10 -3 10 -13 9 -18 -3 -28 -13 -11 -15 -10 -9 6 5 19 5 19 -10 0 -8 -10 -13
-22 -11 -27 3 -4 1 -10 -5 -14 -5 -3 -10 -1 -10 4 0 6 -4 11 -9 11 -5 0 -8
-11 -7 -24 2 -18 -1 -23 -12 -18 -11 4 -13 2 -7 -8 5 -9 4 -11 -3 -6 -7 4 -12
2 -12 -4 0 -6 -6 -8 -12 -4 -7 4 -4 -3 7 -17 15 -18 16 -20 3 -10 -16 12 -18
11 -18 -3 0 -10 -4 -15 -9 -12 -5 3 -12 -1 -15 -10 -4 -10 -2 -13 7 -8 8 6 8
3 -1 -9 -8 -9 -11 -21 -7 -27 3 -5 -1 -13 -10 -16 -13 -6 -14 -8 -3 -15 10 -7
11 -9 0 -9 -7 0 -10 -4 -7 -10 3 -5 2 -10 -3 -10 -12 0 -2 -53 12 -62 7 -5 6
-8 -3 -8 -11 0 -10 -4 5 -16 17 -14 17 -15 1 -10 -17 5 -16 3 2 -20 16 -20 18
-30 10 -40 -7 -9 -5 -15 8 -23 10 -6 12 -11 5 -11 -6 0 -11 -3 -10 -7 3 -16
-14 -43 -24 -37 -5 3 -1 12 8 18 13 10 14 15 4 21 -8 5 -11 4 -7 -2 4 -6 0
-13 -8 -17 -8 -3 -12 -12 -9 -20 3 -8 0 -17 -7 -22 -7 -4 -10 -3 -6 3 3 5 0
10 -8 10 -8 0 -13 -2 -11 -5 3 -2 -7 -15 -22 -29 l-27 -24 28 17 c25 15 27 15
21 0 -3 -9 -10 -14 -14 -11 -5 3 -12 0 -15 -6 -4 -5 -13 -8 -21 -5 -8 3 -17
-1 -20 -9 -3 -8 -12 -11 -22 -7 -15 5 -16 4 -2 -13 12 -15 12 -17 1 -10 -11 6
-13 4 -8 -9 4 -9 3 -15 -2 -11 -5 3 -12 -1 -14 -7 -4 -10 -6 -10 -6 0 -1 6 -6
12 -13 12 -6 0 -9 -3 -5 -6 8 -8 -13 -64 -25 -64 -5 0 -6 5 -2 12 4 6 3 8 -4
5 -5 -4 -9 -18 -8 -30 2 -20 -1 -23 -20 -21 -16 1 -21 -2 -17 -12 3 -7 -5 -25
-16 -40 -12 -15 -21 -22 -21 -17 0 6 7 16 15 23 8 7 15 18 15 24 0 6 -5 3 -11
-7 -6 -9 -15 -15 -20 -11 -5 3 -9 2 -8 -3 4 -22 -2 -34 -13 -27 -9 5 -9 2 1
-9 12 -15 11 -17 -10 -17 -13 0 -19 -4 -14 -8 6 -4 11 -13 13 -21 3 -12 0 -12
-12 -2 -12 10 -14 9 -9 -10 5 -17 3 -21 -9 -17 -11 5 -14 0 -10 -20 4 -21 2
-24 -14 -18 -10 4 -15 4 -11 0 4 -4 2 -14 -5 -21 -9 -11 -9 -17 3 -25 11 -8 9
-9 -7 -5 -13 3 -21 -1 -21 -9 0 -7 4 -11 9 -8 4 3 5 -2 2 -10 -3 -9 -12 -12
-22 -8 -15 5 -16 4 -2 -13 9 -11 10 -16 3 -11 -9 4 -14 1 -15 -11 -2 -33 -3
-38 -11 -49 -3 -6 -6 -28 -5 -48 1 -20 -2 -39 -5 -43 -4 -3 -2 -12 4 -20 9
-10 7 -13 -7 -13 -11 0 -15 -4 -9 -8 6 -4 12 -16 13 -26 3 -16 1 -18 -10 -9
-10 9 -13 4 -12 -29 2 -56 -6 -84 -17 -66 -6 9 -8 6 -6 -9 2 -12 7 -26 12 -30
4 -5 5 -2 0 6 -5 10 -4 12 4 7 15 -10 5 -26 -17 -26 -13 0 -13 -2 4 -15 10 -8
14 -15 7 -15 -6 0 -9 -9 -6 -20 3 -11 10 -17 17 -14 6 3 0 -4 -14 -16 -14 -12
-20 -19 -13 -16 6 4 14 2 18 -4 3 -5 1 -10 -5 -10 -7 0 -8 -6 -1 -19 9 -15 6
-22 -15 -36 -14 -9 -23 -19 -20 -22 3 -4 1 -12 -6 -20 -8 -10 -8 -12 4 -8 9 4
15 0 15 -10 0 -9 -6 -14 -14 -11 -7 3 -13 1 -13 -5 0 -6 -5 -7 -12 -3 -7 4 -8
3 -4 -5 4 -6 13 -9 19 -5 7 3 3 -2 -7 -10 -15 -12 -16 -16 -5 -16 12 0 12 -2
-1 -10 -12 -8 -12 -10 3 -15 15 -6 14 -9 -6 -27 -12 -11 -15 -17 -7 -13 9 4 8
0 -3 -8 -18 -15 -18 -15 0 -20 16 -4 16 -5 1 -6 -15 -1 -16 -5 -8 -27 6 -15 6
-23 1 -19 -5 3 -12 1 -16 -5 -3 -5 -1 -10 4 -10 6 0 11 -5 11 -11 0 -6 -7 -9
-15 -6 -11 5 -12 1 -5 -18 7 -20 6 -25 -5 -25 -8 0 -15 -5 -15 -11 0 -5 4 -8
9 -5 5 4 8 -2 6 -11 -2 -10 -4 -22 -4 -26 -1 -5 -6 -5 -12 -1 -8 5 -8 1 0 -14
8 -15 8 -22 -2 -25 -9 -4 -8 -6 2 -6 11 -1 11 -4 1 -16 -11 -13 -10 -14 5 -9
14 6 16 3 10 -14 -4 -13 -2 -22 4 -22 6 0 8 -7 4 -16 -3 -9 0 -20 7 -24 15 -9
21 -80 6 -80 -6 0 -5 -5 2 -12 7 -7 8 -17 1 -30 -7 -13 -6 -18 3 -18 9 0 9 -3
-2 -10 -11 -7 -11 -10 -2 -10 7 0 10 -5 7 -10 -4 -6 -12 -7 -18 -3 -7 4 -6 0
2 -10 9 -11 9 -17 2 -17 -6 0 -9 -10 -7 -22 2 -13 -1 -28 -6 -34 -5 -7 -7 -18
-6 -25 2 -8 -3 -13 -9 -12 -7 2 -13 -2 -13 -8 0 -6 -9 -9 -20 -6 -10 3 -19 2
-18 -2 3 -26 -3 -31 -19 -15 -11 11 -18 13 -21 5 -3 -8 -9 -8 -24 0 -16 8 -19
8 -13 -1 6 -9 2 -9 -14 -1 -14 8 -21 8 -21 1 0 -8 -6 -8 -20 0 -15 8 -20 8
-20 -2 0 -8 -3 -9 -11 -1 -6 6 -25 7 -49 3 -32 -6 -38 -4 -34 9 3 9 -1 6 -7
-6 -11 -21 -13 -22 -25 -5 -9 11 -13 13 -14 4 0 -7 -5 -10 -10 -7 -6 4 -17 1
-25 -5 -12 -10 -16 -9 -21 3 -4 12 -11 14 -29 7 -16 -6 -27 -6 -31 2 -5 7 -3
8 6 3 9 -5 11 -4 6 4 -6 9 -11 9 -22 0 -11 -9 -14 -9 -14 1 0 9 -4 9 -17 -1
-15 -12 -16 -12 -10 4 6 15 4 16 -16 5 -19 -10 -39 -13 -78 -9 -5 1 -7 5 -4
11 4 6 -1 7 -11 3 -13 -5 -15 -3 -9 8 7 11 6 12 -6 3 -8 -6 -22 -10 -31 -9
-11 2 -18 -3 -18 -13 0 -11 -3 -13 -8 -6 -4 6 -17 13 -30 17 -18 4 -22 2 -18
-9 4 -10 2 -12 -7 -7 -16 11 -51 11 -58 0 -3 -5 -9 -2 -12 6 -4 11 0 15 14 12
11 -2 17 0 14 5 -6 10 -24 8 -44 -4 -9 -6 -12 -5 -8 1 4 6 0 14 -9 17 -12 5
-15 2 -10 -10 6 -14 4 -15 -10 -3 -21 17 -54 19 -54 2 0 -7 -5 -13 -11 -13 -5
0 -7 5 -4 10 3 5 1 10 -5 10 -6 0 -8 6 -4 13 4 6 -4 2 -18 -11 -19 -17 -28
-20 -33 -11 -5 8 -4 10 3 5 18 -11 14 0 -5 15 -14 12 -16 12 -8 0 6 -11 4 -13
-9 -8 -9 4 -14 3 -11 -2 3 -5 1 -12 -5 -16 -5 -3 -10 0 -10 7 0 14 -27 15 -75
4 -11 -2 -23 -5 -27 -5 -5 -1 -8 -6 -8 -12 0 -8 6 -7 17 2 16 13 17 12 4 -4
-13 -17 -15 -17 -40 5 -14 13 -19 15 -12 5 13 -16 12 -17 -14 -7 -24 9 -26 8
-21 -7 6 -14 4 -14 -15 3 -12 10 -19 14 -16 8 4 -7 0 -15 -9 -18 -21 -8 -20
-8 -37 9 -13 13 -16 13 -21 -1 -3 -8 -2 -13 2 -10 5 3 9 -1 9 -9 0 -11 -5 -10
-24 2 -22 15 -23 14 -16 -3 6 -16 5 -17 -9 -6 -13 10 -18 10 -24 1 -5 -8 -3
-9 6 -4 9 5 11 4 6 -4 -4 -6 -12 -9 -17 -5 -5 3 -21 -1 -34 -10 -23 -15 -24
-15 -19 1 5 17 5 17 -9 1 -18 -23 -28 -23 -21 0 2 9 -1 7 -8 -6 -8 -16 -18
-22 -30 -18 -15 3 -17 1 -9 -8 8 -9 7 -13 -4 -13 -8 0 -15 5 -16 11 0 6 -5 0
-10 -14 -8 -20 -12 -22 -20 -10 -9 12 -10 10 -6 -7 3 -15 1 -20 -9 -16 -8 3
-11 10 -7 17 4 6 -1 5 -10 -3 -9 -7 -14 -17 -11 -22 3 -5 -3 -6 -12 -2 -13 5
-15 3 -9 -8 7 -11 5 -11 -10 1 -15 12 -17 12 -10 1 6 -11 4 -13 -8 -8 -11 4
-14 2 -10 -8 3 -8 10 -12 17 -8 6 3 7 2 3 -3 -5 -5 -16 -9 -25 -10 -26 -1 -52
-15 -52 -27 0 -5 9 -2 19 7 14 13 21 14 27 5 4 -7 3 -10 -3 -6 -6 4 -18 -2
-28 -13 -18 -20 -41 -28 -31 -12 3 5 -1 9 -9 9 -8 0 -12 -4 -9 -8 3 -5 -7 -18
-21 -31 -14 -12 -25 -27 -25 -34 0 -8 -9 -18 -20 -24 -11 -6 -20 -17 -20 -25
0 -8 -5 -15 -11 -15 -5 0 -7 6 -3 13 4 7 3 9 -2 4 -5 -5 -10 -13 -10 -18 -1
-5 -2 -13 -3 -19 0 -5 -7 -9 -13 -7 -8 1 -12 -6 -10 -17 2 -10 -1 -15 -6 -12
-6 3 -12 -1 -16 -9 -3 -8 -1 -15 5 -15 6 0 7 -5 4 -10 -4 -6 -11 -8 -16 -5 -5
3 -6 -1 -3 -9 4 -9 1 -16 -6 -16 -8 0 -10 -8 -7 -21 5 -17 3 -18 -9 -8 -8 7
-14 8 -13 3 4 -22 -2 -45 -10 -40 -5 3 -7 -8 -6 -24 2 -22 -2 -30 -13 -30 -13
0 -12 -3 4 -16 10 -8 13 -12 5 -8 -9 4 -12 2 -9 -7 3 -8 -1 -21 -9 -31 -11
-12 -11 -18 -2 -24 8 -5 10 -3 4 6 -5 9 -4 11 4 6 17 -11 3 -26 -17 -19 -14 6
-15 4 -4 -9 10 -13 10 -17 0 -21 -11 -4 -10 -6 0 -6 7 -1 10 -6 7 -11 -5 -8
-11 -8 -19 -1 -9 8 -13 7 -13 -4 0 -8 4 -12 9 -9 4 3 8 1 8 -5 0 -5 3 -17 7
-27 4 -10 2 -15 -4 -11 -5 3 -10 0 -10 -8 0 -8 4 -15 8 -15 4 0 4 -13 -1 -29
-6 -22 -4 -33 9 -45 14 -15 14 -16 0 -11 -11 4 -15 0 -14 -14 1 -11 4 -23 7
-26 10 -11 -4 -55 -16 -48 -6 4 -5 -1 3 -10 15 -19 26 -23 15 -5 -5 7 -3 8 5
3 9 -5 9 -11 3 -17 -7 -7 -6 -15 3 -24 10 -11 11 -22 4 -47 -8 -28 -6 -35 16
-54 15 -13 22 -23 16 -23 -5 0 -9 -9 -8 -19 0 -11 5 -17 9 -15 8 5 12 -11 9
-30 -1 -5 5 -3 14 4 13 11 15 10 9 -4 -4 -11 1 -22 15 -33 17 -12 20 -18 10
-29 -9 -11 -9 -14 0 -14 7 0 10 -4 6 -9 -3 -5 -1 -12 5 -16 6 -4 8 -11 5 -16
-4 -5 -1 -9 4 -9 14 0 14 13 -1 28 -9 9 -9 12 -1 12 15 0 26 -36 17 -52 -6
-10 -5 -11 8 -1 19 16 32 4 15 -15 -10 -13 -9 -14 9 -4 16 9 21 8 21 -3 0 -8
-5 -11 -10 -8 -6 3 -7 1 -3 -5 4 -7 12 -12 17 -12 16 0 39 -27 31 -35 -4 -4 4
-2 17 5 13 6 21 8 17 2 -7 -12 22 -25 36 -15 6 3 8 2 5 -4 -6 -10 40 -38 56
-34 5 1 6 -9 2 -21 -4 -16 -3 -19 3 -9 7 9 12 10 16 2 4 -6 12 -9 17 -5 5 3 7
10 4 15 -11 17 8 9 34 -13 14 -13 20 -16 14 -8 -7 8 -13 21 -13 30 1 12 2 12
11 -2 5 -10 15 -18 20 -18 6 0 8 4 5 8 -3 5 1 9 9 9 8 0 11 -5 8 -10 -3 -5 0
-7 8 -5 8 3 13 11 11 17 -1 7 2 10 8 6 6 -3 8 -9 6 -13 -2 -4 7 -7 20 -7 13 0
24 4 24 8 0 4 8 3 18 -2 13 -7 25 -6 38 3 21 13 52 15 72 3 7 -5 12 -3 12 5 0
10 2 10 9 -1 6 -10 10 -10 16 -1 6 9 10 9 16 -1 5 -8 9 -9 9 -3 0 6 18 11 40
12 25 1 40 -3 40 -10 0 -6 3 -8 6 -5 4 4 2 13 -4 20 -9 10 -8 14 3 14 8 0 12
-4 10 -8 -3 -3 1 -12 8 -18 10 -8 19 -7 33 5 18 14 18 14 -6 4 -24 -10 -24
-10 -6 4 11 9 24 12 30 8 16 -12 89 -15 82 -3 -4 5 7 4 23 -2 17 -6 28 -14 25
-19 -3 -4 2 -5 10 -2 9 3 16 10 16 16 0 5 -4 7 -9 3 -5 -3 -12 -1 -15 4 -7 11
13 9 32 -2 7 -5 10 -14 6 -20 -3 -7 2 -3 10 7 17 21 46 30 46 15 0 -4 7 -6 15
-2 9 3 15 2 13 -3 -2 -5 1 -9 7 -9 5 0 9 4 7 8 -1 5 3 7 10 4 7 -2 25 2 41 10
16 8 27 9 27 3 0 -5 -5 -10 -12 -10 -6 0 -9 -2 -6 -5 8 -8 39 6 33 15 -3 5 0
12 6 16 7 4 9 3 6 -2 -3 -6 3 -15 14 -22 11 -7 19 -8 19 -2 0 5 12 10 26 10
17 0 23 4 18 12 -4 6 3 4 17 -5 29 -21 39 -21 39 -3 0 16 51 17 62 1 5 -6 8
-5 8 3 0 7 4 11 10 7 5 -3 7 -13 4 -23 -5 -14 -4 -14 4 -2 6 8 9 17 6 21 -2 4
0 10 5 13 5 4 13 1 17 -5 5 -8 3 -9 -7 -4 -8 5 -11 4 -6 -1 10 -11 67 -13 61
-2 -10 16 9 8 22 -9 13 -17 14 -17 7 1 -4 13 -3 17 5 12 7 -4 12 -3 12 1 0 5
27 8 61 7 33 0 63 4 66 9 3 5 9 3 14 -4 7 -11 9 -10 9 3 0 21 16 32 26 17 5
-8 3 -9 -6 -4 -9 5 -11 4 -6 -4 4 -6 12 -8 18 -5 6 4 14 0 19 -7 7 -11 9 -10
9 3 0 12 5 15 17 11 11 -5 14 -3 8 6 -4 8 3 6 18 -4 19 -12 27 -13 33 -4 4 7
3 9 -3 6 -6 -4 -17 1 -24 10 -12 15 -12 16 1 8 8 -6 20 -10 25 -10 6 -1 9 -6
8 -13 -2 -7 3 -12 10 -12 9 0 8 -3 -2 -9 -7 -5 -10 -14 -7 -20 4 -6 12 -9 18
-5 5 3 2 -9 -8 -27 -17 -33 -17 -34 1 -19 14 11 17 11 11 1 -5 -8 -3 -17 5
-22 11 -7 10 -9 -3 -9 -10 0 -15 -6 -13 -12 3 -7 6 -34 8 -60 2 -38 -1 -48
-13 -48 -12 0 -13 -2 -1 -9 13 -8 23 -111 11 -111 -3 0 -3 -27 0 -61 4 -45 3
-62 -7 -66 -10 -4 -9 -8 2 -20 11 -10 12 -20 5 -32 -5 -10 -6 -21 -3 -25 3 -3
0 -6 -8 -6 -11 0 -11 -2 1 -10 13 -8 12 -10 -3 -10 -15 0 -16 -3 -6 -22 12
-22 11 -22 -6 -8 -10 8 -16 10 -12 3 4 -6 2 -15 -4 -18 -5 -4 -8 -14 -4 -22 4
-13 3 -14 -10 -3 -13 11 -14 10 -8 -5 5 -14 3 -17 -9 -12 -11 4 -15 0 -13 -11
3 -19 -22 -52 -39 -52 -6 0 -3 7 6 14 10 7 15 16 11 19 -12 12 -32 -27 -21
-40 8 -10 6 -13 -5 -13 -9 0 -19 -5 -23 -12 -4 -7 -3 -8 4 -4 8 5 10 2 6 -8
-3 -9 -11 -13 -18 -9 -6 3 -2 -3 8 -15 11 -12 16 -25 13 -29 -4 -3 -7 -1 -7 5
0 7 -4 12 -10 12 -5 0 -7 -6 -5 -12 13 -33 10 -84 -5 -96 -8 -7 -10 -11 -5
-10 12 4 15 -4 15 -37 0 -14 -5 -25 -11 -25 -5 0 -7 6 -3 13 4 6 -2 3 -15 -7
-17 -16 -24 -17 -34 -7 -9 10 -8 11 6 6 10 -5 17 -2 17 6 0 7 -3 9 -6 6 -4 -3
-14 -2 -24 3 -12 6 -24 4 -40 -7 -14 -10 -20 -11 -15 -4 11 19 -37 3 -52 -17
-7 -9 -13 -11 -13 -5 0 16 -31 9 -45 -10 -7 -9 -21 -15 -33 -12 -14 2 -19 -1
-16 -10 3 -7 0 -16 -7 -21 -7 -4 -10 -3 -5 4 10 17 -10 23 -24 7 -6 -7 -19
-11 -27 -8 -10 4 -14 2 -9 -5 3 -6 2 -13 -3 -16 -5 -4 -13 -1 -17 5 -5 8 -3 9
6 4 9 -6 11 -4 5 5 -6 10 -11 9 -21 -4 -9 -13 -13 -14 -17 -4 -4 9 -6 10 -6 1
-1 -7 -7 -10 -15 -7 -8 3 -17 0 -21 -6 -6 -9 -10 -9 -16 1 -5 9 -9 10 -9 2 0
-6 -9 -9 -20 -6 -14 4 -20 0 -20 -12 0 -15 -1 -15 -16 -1 -20 20 -30 21 -14 1
11 -13 10 -14 -5 -9 -13 5 -16 4 -10 -5 6 -10 3 -11 -14 -2 -18 10 -20 9 -14
-6 3 -10 3 -15 -2 -11 -4 4 -14 3 -22 -4 -11 -9 -12 -7 -7 8 5 18 5 18 -6 1
-6 -9 -8 -23 -4 -30 5 -8 2 -7 -9 2 -11 9 -17 10 -17 2 0 -6 -3 -10 -7 -10
-22 4 -33 -2 -28 -13 4 -7 -1 -4 -9 6 -15 18 -16 18 -16 2 0 -9 -5 -14 -10
-11 -6 4 -18 1 -27 -7 -9 -7 -14 -8 -10 -2 3 6 0 11 -7 11 -8 0 -12 -7 -8 -15
3 -10 1 -13 -6 -9 -18 12 -61 -13 -55 -32 4 -12 2 -11 -9 3 -11 13 -17 16 -22
7 -4 -6 -12 -8 -18 -5 -7 5 -8 2 -4 -5 5 -8 2 -11 -9 -9 -13 2 -19 -4 -20 -20
-1 -13 -10 -31 -20 -40 -18 -16 -18 -16 -6 1 9 11 10 17 2 17 -6 0 -13 -11
-17 -25 -3 -14 -9 -23 -13 -20 -4 2 -8 -2 -9 -10 -1 -8 -3 -21 -4 -29 -1 -8
-8 -12 -17 -8 -14 5 -14 4 -2 -11 12 -16 12 -17 -5 -10 -17 6 -18 5 -4 -12 9
-11 10 -16 3 -11 -8 4 -13 2 -14 -6 0 -7 -2 -25 -3 -40 -1 -21 1 -24 11 -16
13 11 19 -3 6 -16 -11 -10 -12 -37 -2 -30 5 3 9 0 9 -7 0 -7 7 -4 16 7 8 10
13 13 9 6 -4 -7 0 -12 10 -12 9 0 13 -4 10 -10 -3 -5 -1 -10 4 -10 6 0 11 5
11 10 0 6 5 10 10 10 7 0 7 -7 -1 -21 -8 -15 -8 -19 0 -15 6 4 11 0 11 -9 0
-10 5 -13 13 -9 9 6 9 4 -1 -8 -10 -13 -10 -17 4 -22 9 -3 21 -3 26 1 6 3 8 1
5 -4 -4 -7 8 -12 33 -15 22 -2 40 0 40 3 0 4 10 5 22 1 17 -4 20 -2 15 11 -4
11 -2 14 8 10 8 -3 13 -9 10 -13 -3 -5 4 -6 15 -3 11 3 20 10 20 15 0 5 5 6
10 3 6 -4 37 -7 70 -7 33 -1 57 -5 54 -10 -3 -4 -2 -8 3 -9 4 0 16 -2 26 -4 9
-2 15 1 11 6 -3 5 0 9 5 9 6 0 11 -5 11 -10 0 -7 6 -7 19 0 14 7 22 7 27 -2 5
-8 10 -6 15 8 7 18 8 18 9 -1 1 -19 1 -19 11 -2 8 14 14 15 24 7 16 -13 30 3
20 23 -4 6 -1 5 7 -3 7 -8 19 -16 27 -18 12 -3 12 -1 0 14 -13 16 -12 16 20 0
18 -10 30 -13 27 -7 -4 6 -2 11 4 11 6 0 8 5 4 12 -4 7 -3 8 5 4 6 -4 8 -13 4
-19 -3 -7 4 -3 17 8 13 11 21 16 18 10 -8 -12 91 -13 111 -1 10 6 12 5 7 -2
-9 -14 -9 -14 32 -3 23 7 32 6 32 -2 0 -7 4 -6 10 3 5 8 10 11 10 5 0 -5 20
-10 44 -10 31 0 42 3 35 11 -5 7 -3 11 6 11 8 0 15 -4 15 -9 0 -5 5 -6 10 -3
6 4 8 10 5 15 -3 4 3 7 12 5 10 -1 17 -9 15 -16 -2 -10 1 -10 10 1 12 15 31
16 83 7 11 -2 26 3 33 12 8 9 11 11 8 6 -2 -6 -1 -17 5 -25 7 -12 9 -11 9 5 0
15 2 17 9 6 7 -11 11 -10 20 5 6 11 11 14 11 8 0 -6 7 -11 15 -11 8 0 12 4 9
9 -4 5 0 9 7 7 29 -3 40 2 37 17 -2 10 4 19 12 21 13 4 13 3 0 -6 -8 -6 -10
-11 -4 -11 6 0 17 7 24 15 7 8 18 15 24 14 7 0 6 -2 -1 -6 -7 -2 -13 -9 -13
-14 0 -6 7 -6 18 -1 9 5 23 7 31 4 9 -3 11 0 6 9 -5 8 1 6 12 -4 14 -12 23
-15 28 -8 6 11 -1 15 -18 12 -5 -1 -6 3 -2 9 3 5 13 10 21 10 10 0 12 5 8 13
-5 7 -2 7 10 -2 9 -8 16 -10 15 -5 -4 21 2 26 18 13 11 -10 14 -10 9 -1 -4 7
-1 12 9 12 9 0 14 4 10 10 -3 5 -13 7 -23 4 -9 -2 -5 2 10 9 23 11 26 15 15
26 -8 10 -8 12 0 7 6 -3 14 -2 18 4 3 5 0 10 -7 10 -10 0 -10 2 1 9 8 5 11 16
8 26 -4 9 -3 13 2 10 5 -3 12 4 16 15 4 12 11 17 18 13 8 -4 7 -1 -1 9 -10 13
-10 18 -1 24 8 5 9 3 4 -7 -8 -12 -6 -12 8 0 16 13 16 14 0 27 -17 13 -17 14
1 7 16 -5 18 -3 13 11 -5 13 -3 17 5 13 9 -3 14 7 15 31 1 25 11 43 35 65 28
26 29 29 9 22 l-24 -7 22 23 c11 12 21 30 21 38 0 13 2 13 9 2 7 -11 10 -11
17 0 5 8 9 19 10 24 0 6 2 16 2 23 1 7 6 11 11 8 4 -3 8 17 7 44 -1 28 3 50 8
50 6 0 5 5 -1 11 -6 6 -9 18 -6 27 4 9 2 13 -4 9 -6 -4 -13 0 -17 8 -3 8 0 17
6 21 7 4 8 3 4 -4 -4 -7 -2 -12 3 -12 17 0 13 18 -6 29 -11 6 -13 11 -5 11 8
0 10 5 5 13 -10 16 -13 37 -5 36 19 -3 32 2 32 12 0 5 -6 7 -12 3 -9 -5 -9 -3
1 9 12 15 31 15 31 1 0 -3 -5 -2 -12 2 -7 4 -8 3 -4 -5 11 -16 26 -3 19 16 -4
11 -3 14 5 9 19 -11 35 3 22 19 -9 11 -8 13 7 10 12 -2 20 2 20 10 0 8 -7 11
-16 8 -10 -4 -9 0 4 10 11 8 24 13 30 9 5 -3 4 2 -3 11 -8 9 -11 21 -7 27 4 6
3 10 -2 9 -20 -4 -34 2 -28 11 4 6 1 18 -7 27 -8 10 -8 14 -1 10 19 -12 25 11
6 23 -15 9 -15 11 -2 6 20 -6 34 45 16 56 -7 5 -8 8 -1 8 5 0 16 -6 23 -12 10
-11 11 -10 6 4 -4 11 -2 18 4 18 6 0 11 -5 11 -11 0 -5 5 -7 11 -3 8 5 10 -1
7 -19 -3 -15 -2 -24 2 -22 5 3 11 -2 14 -11 3 -8 2 -13 -2 -10 -5 3 -9 -1 -9
-9 0 -8 4 -12 9 -9 13 8 9 -31 -4 -45 -11 -11 -10 -13 2 -9 12 4 16 -1 15 -21
0 -19 5 -26 19 -24 12 1 15 -2 8 -9 -8 -8 -6 -15 4 -25 8 -8 11 -20 7 -26 -4
-7 2 -5 12 3 17 14 18 14 7 -7 -11 -19 -9 -21 13 -19 13 2 22 0 20 -5 -3 -4
-2 -9 2 -12 5 -2 3 -2 -4 -1 -7 2 -15 -2 -19 -8 -4 -6 -3 -8 4 -4 6 3 13 2 17
-4 4 -6 10 -8 14 -5 5 2 17 -11 27 -30 10 -19 25 -35 32 -35 9 0 12 -7 9 -20
-3 -11 -1 -18 3 -15 11 7 18 -4 24 -38 2 -15 0 -27 -5 -27 -6 0 -7 -5 -4 -10
4 -6 11 -8 16 -5 5 4 9 4 9 0 0 -3 -10 -10 -22 -15 -17 -6 -18 -9 -6 -9 13 -1
15 -7 10 -28 -4 -16 -6 -41 -4 -58 1 -16 2 -41 2 -54 0 -14 6 -28 12 -33 10
-6 10 -8 1 -8 -7 0 -13 -5 -13 -11 0 -6 6 -9 14 -6 10 4 14 0 11 -13 -4 -18
27 -38 49 -31 5 1 4 -4 -2 -12 -9 -11 -6 -13 20 -9 24 4 29 2 23 -9 -5 -8 -5
-11 0 -7 4 4 15 2 23 -5 10 -8 13 -8 9 -1 -4 7 0 15 9 18 8 3 12 2 9 -3 -3 -5
-1 -12 5 -16 5 -3 10 0 10 7 1 8 5 7 14 -5 11 -14 15 -15 19 -5 3 8 6 5 6 -7
1 -16 3 -17 11 -5 8 12 10 12 16 -4 4 -10 10 -13 13 -8 10 17 46 19 43 3 -2
-11 0 -12 11 -3 8 7 28 10 45 8 23 -2 32 1 32 11 0 8 5 11 10 8 6 -4 8 -10 6
-14 -9 -14 39 -6 52 9 12 13 13 13 9 0 -3 -11 4 -15 33 -15 30 0 36 3 28 13
-8 9 -7 11 7 6 14 -6 16 -4 10 7 -4 8 -5 11 0 7 4 -4 13 -4 19 2 7 5 17 5 26
-2 12 -8 12 -9 -3 -4 -12 4 -16 2 -11 -6 5 -7 3 -8 -6 -3 -9 5 -11 4 -6 -3 5
-9 13 -9 28 -1 11 6 31 8 44 5 15 -4 24 -2 24 5 0 8 6 7 17 -2 11 -10 14 -10
9 -1 -9 15 6 16 22 0 7 -7 12 -8 12 -2 0 12 29 12 48 0 7 -4 12 -2 12 5 0 8 4
8 15 -1 13 -11 14 -10 10 3 -4 8 -1 18 6 23 7 4 10 3 5 -4 -4 -7 1 -10 14 -9
11 1 20 5 20 9 0 4 5 8 11 8 5 0 8 -3 6 -7 -3 -5 6 -8 19 -8 17 0 23 4 19 15
-4 11 -1 10 8 -2 8 -10 16 -16 18 -14 9 8 60 16 56 9 -3 -4 9 -8 26 -9 18 -1
26 1 19 3 -6 3 -9 9 -6 14 3 6 12 5 22 -3 13 -11 15 -11 10 3 -5 13 -1 15 19
11 19 -4 24 -2 18 8 -6 9 -3 10 13 1 11 -6 23 -16 25 -23 3 -7 6 -2 6 11 1 24
1 24 16 5 10 -14 14 -15 15 -5 0 11 4 10 16 -5 13 -15 15 -16 10 -2 -3 12 -1
15 10 11 7 -3 14 -10 14 -16 0 -6 3 -7 6 -4 4 4 2 13 -4 20 -9 11 -7 13 8 12
11 -1 23 -5 27 -10 5 -4 2 -5 -6 0 -10 5 -12 4 -7 -4 4 -6 12 -9 17 -5 5 3 6
10 3 16 -4 6 7 9 28 7 18 -2 40 1 47 5 9 6 12 5 8 0 -3 -6 3 -10 13 -11 11 -1
22 2 25 8 3 5 -1 6 -9 3 -9 -3 -16 -2 -16 3 0 5 9 9 20 10 11 1 20 -3 20 -8 0
-6 5 -7 10 -4 6 4 8 9 6 13 -2 4 6 7 19 7 13 0 21 -3 19 -6 -2 -4 3 -9 11 -12
10 -4 12 -1 8 11 -6 15 -5 15 10 3 12 -9 17 -10 17 -2 0 9 5 9 20 1 16 -9 20
-8 20 7 0 15 2 15 14 -2 8 -11 12 -24 9 -29 -4 -5 -1 -6 6 -2 9 6 9 11 1 21
-13 16 12 29 28 13 6 -6 12 -6 17 3 6 8 4 10 -5 4 -9 -6 -11 -4 -6 4 6 9 13 8
27 -5 19 -17 20 -17 13 0 -6 16 -4 17 14 7 12 -7 22 -8 22 -2 0 5 7 11 14 14
11 4 13 1 9 -11 -6 -14 -5 -15 9 -2 9 8 14 18 11 23 -6 10 5 9 28 -3 13 -8 19
-7 19 0 0 7 6 8 19 0 24 -13 34 -13 26 -1 -7 13 33 5 50 -9 11 -9 13 -6 9 12
-2 13 -1 17 2 10 5 -10 9 -10 22 0 9 7 13 8 10 3 -4 -6 2 -11 12 -11 14 0 16
3 8 13 -8 10 -7 12 3 8 8 -2 31 -6 51 -8 28 -3 38 0 41 12 4 13 5 13 6 -2 1
-17 2 -17 17 -2 9 9 23 14 30 11 8 -3 14 -1 14 5 0 6 7 6 19 -1 23 -12 42 -14
24 -2 -9 6 -7 11 7 20 16 10 18 9 14 -3 -5 -11 -2 -13 10 -9 9 3 14 9 11 13
-2 4 2 8 10 8 8 0 12 -3 10 -7 -2 -3 5 -6 16 -6 12 0 18 5 15 13 -3 7 -3 13 0
13 2 0 9 -10 14 -23 7 -17 9 -18 9 -4 1 15 4 16 22 7 19 -11 20 -10 9 10 -11
20 -10 21 9 10 14 -7 21 -7 21 0 0 5 5 10 11 10 5 0 8 -4 5 -9 -4 -5 3 -7 13
-4 13 3 18 11 15 21 -4 12 -2 12 7 -2 11 -18 12 -18 31 5 16 19 19 20 14 5 -5
-16 -4 -17 9 -6 8 7 12 17 8 24 -4 6 2 4 12 -4 10 -8 16 -10 12 -4 -4 7 3 14
18 18 14 4 25 12 25 19 0 8 4 7 10 -3 8 -13 11 -11 16 7 4 13 10 20 15 17 5
-3 6 -10 3 -16 -4 -7 -2 -8 4 -4 6 4 8 14 5 23 -5 12 -2 15 10 10 14 -5 15 -2
7 18 -9 24 -6 30 15 25 5 -1 2 7 -8 17 -13 15 -14 22 -4 32 9 10 8 14 -6 22
-14 8 -15 14 -6 31 8 15 8 19 0 14 -6 -4 -11 -1 -11 7 0 7 -12 19 -26 26 -21
9 -24 14 -15 25 9 11 9 16 0 22 -8 5 -9 3 -4 -6 5 -9 4 -11 -4 -6 -9 6 -9 11
1 24 8 10 9 13 1 9 -6 -4 -15 -2 -19 4 -4 8 -3 9 4 5 8 -5 11 2 8 23 -2 18 1
29 8 28 6 -1 10 5 8 13 -1 10 3 9 14 -5 15 -17 16 -18 10 -2 -5 15 -2 17 17
12 22 -7 22 -7 2 9 -19 16 -19 16 8 12 24 -4 27 -3 17 10 -15 17 -24 19 -14 2
5 -7 3 -8 -5 -4 -7 5 -9 11 -6 15 11 11 29 7 44 -9 8 -9 7 -4 -3 12 -14 23
-14 27 0 32 8 3 13 10 9 15 -3 5 -1 13 5 16 8 5 7 11 -1 21 -9 11 -9 14 1 14
10 0 10 3 0 15 -10 12 -9 16 5 21 10 4 15 14 12 25 -3 11 0 19 6 19 8 0 8 3
-1 9 -10 6 -10 10 2 21 9 7 13 17 10 22 -4 6 4 5 16 -2 12 -7 20 -8 16 -2 -3
5 1 15 9 22 20 17 19 31 -2 24 -17 -5 -17 -5 0 6 10 6 14 16 10 23 -4 7 2 5
12 -3 17 -14 18 -14 6 9 -8 15 -9 21 -2 17 6 -4 11 0 11 9 0 10 -5 13 -12 9
-7 -4 -8 -3 -4 5 4 6 11 9 16 6 12 -7 17 74 6 85 -7 7 -4 10 6 10 9 0 20 5 24
12 4 6 3 8 -3 5 -6 -4 -13 0 -16 8 -4 10 -1 12 10 8 12 -5 14 -3 8 8 -8 12 -6
12 9 0 15 -12 17 -12 14 0 -2 8 3 13 10 11 8 -1 11 2 7 8 -14 23 -13 49 3 62
16 12 16 11 2 -7 -14 -19 -14 -19 3 -6 17 13 17 15 0 34 -10 11 -12 17 -5 13
8 -5 12 0 12 16 0 13 5 30 11 38 8 12 9 9 4 -10 l-7 -25 17 23 c10 13 21 19
28 15 17 -11 38 -13 32 -3 -3 5 0 12 6 16 7 4 9 3 6 -3 -4 -6 1 -19 9 -29 9
-10 13 -14 10 -8 -3 6 7 17 22 23 22 10 25 10 15 0 -7 -7 -13 -18 -13 -24 0
-5 4 -4 9 4 8 13 12 13 27 0 13 -10 16 -10 10 -1 -6 11 -1 12 23 9 18 -3 29
-1 25 4 -3 5 -10 6 -16 3 -7 -5 -8 -2 -3 6 6 10 12 8 27 -9 l18 -23 0 23 c0
18 3 20 9 10 5 -7 13 -11 19 -7 6 3 13 -2 15 -11 4 -16 5 -16 6 1 1 19 1 19
23 0 12 -10 18 -13 13 -5 -6 11 -3 13 13 9 15 -4 25 0 32 10 8 14 10 15 11 2
1 -8 1 -18 0 -22 0 -5 4 -8 10 -8 6 0 9 6 6 13 -6 16 47 14 67 -2 11 -9 15 -9
19 1 3 10 9 10 24 1 16 -9 20 -8 20 3 0 7 -5 10 -10 7 -6 -3 -7 -1 -3 5 5 9
13 8 29 -3 14 -9 27 -11 37 -5 8 5 21 5 32 -1 11 -6 18 -6 18 0 0 5 7 12 16
15 13 5 14 3 6 -7 -8 -10 -6 -13 9 -13 10 0 19 7 20 16 0 10 2 11 6 3 6 -16
33 -17 33 -2 0 5 4 8 10 4 5 -3 7 -13 4 -23 -5 -16 -5 -16 6 0 6 10 17 15 26
11 9 -3 20 0 25 8 7 11 9 9 9 -6 0 -17 2 -17 10 -5 9 13 10 13 10 0 0 -12 2
-13 9 -1 7 11 11 10 20 -5 6 -11 11 -14 11 -7 0 6 9 10 20 8 11 -2 19 1 17 7
-4 19 21 20 26 1 4 -17 5 -17 6 0 0 9 6 17 12 17 5 0 7 -6 4 -12 -4 -7 0 -5 8
5 15 18 15 18 20 0 4 -16 5 -16 6 0 0 9 5 17 10 17 5 0 12 -8 16 -17 6 -17 7
-17 19 0 17 22 27 22 19 0 -5 -15 -3 -15 11 2 10 11 14 14 11 7 -6 -11 -3 -12
12 -3 11 6 23 8 26 4 4 -3 14 0 23 8 15 12 16 11 10 -11 -5 -17 -4 -21 2 -11
5 7 15 11 21 7 7 -4 9 -1 5 8 -4 10 0 14 13 12 10 -2 23 -1 28 3 6 3 26 6 46
6 29 0 35 -3 31 -15 -3 -8 -2 -12 3 -8 4 4 15 2 23 -5 10 -8 13 -8 9 -1 -4 7
0 15 9 18 12 5 15 2 10 -10 -6 -15 -4 -15 10 -3 18 14 58 24 50 11 -2 -4 4 -8
14 -8 12 0 16 4 10 11 -5 7 6 9 33 8 23 0 46 4 50 10 6 8 7 5 3 -6 -3 -9 -1
-17 4 -17 6 0 10 8 10 17 0 15 2 14 16 -3 8 -10 13 -14 10 -8 -3 7 1 15 10 18
8 3 12 2 9 -4 -11 -17 7 -11 21 8 12 14 13 15 8 1 -3 -10 0 -20 7 -25 8 -5 10
-3 4 6 -5 9 -4 11 3 6 6 -4 22 -1 34 5 21 11 22 11 9 -5 -12 -14 -12 -16 3
-10 9 3 24 0 33 -7 15 -12 16 -12 10 5 -6 16 -5 17 8 6 12 -10 15 -10 15 1 0
11 2 11 10 -1 5 -8 10 -10 10 -5 0 6 14 11 30 11 17 1 30 -2 30 -7 0 -4 -9 -6
-20 -4 -11 2 -18 0 -15 -5 8 -13 32 -6 52 16 10 11 14 14 9 7 -6 -9 -4 -18 4
-26 10 -10 11 -9 5 2 -6 11 -4 13 8 8 10 -4 17 -2 17 5 0 6 8 3 19 -6 12 -11
21 -14 26 -7 3 6 17 11 31 11 14 0 22 4 19 10 -3 6 -2 10 4 10 5 0 12 -6 14
-12 4 -10 6 -10 6 0 1 7 6 10 11 7 6 -3 10 -2 10 3 0 6 10 8 22 4 15 -4 19 -2
13 7 -6 10 -3 11 13 2 11 -6 23 -16 25 -23 3 -7 6 -2 6 11 1 24 1 24 16 5 9
-12 14 -14 15 -6 0 7 5 10 10 7 6 -4 8 -12 4 -18 -3 -7 3 -1 14 12 14 18 21
21 27 11 6 -9 4 -11 -6 -5 -12 7 -11 6 0 -9 14 -17 15 -17 23 3 4 12 10 21 13
21 4 0 4 -4 1 -8 -2 -4 4 -13 14 -20 13 -8 21 -8 26 -1 3 6 13 8 21 5 8 -3 11
-1 8 4 -3 6 -1 10 5 10 6 0 9 4 5 9 -3 5 0 13 6 17 8 4 9 3 5 -4 -4 -7 -2 -12
4 -12 6 0 9 -4 6 -8 -3 -5 1 -9 9 -9 11 0 12 4 4 13 -7 8 -6 14 2 20 8 4 9 3
5 -4 -4 -7 -2 -12 3 -12 6 0 11 6 11 13 0 7 3 8 8 2 4 -5 13 -11 20 -13 10 -2
10 2 1 20 l-12 23 23 -20 c13 -11 20 -15 17 -8 -4 6 -3 14 3 18 6 4 7 11 4 17
-4 7 -2 8 5 4 6 -4 9 -13 5 -19 -3 -7 1 -4 9 6 16 19 32 24 21 5 -5 -7 -3 -8
5 -4 7 5 10 14 7 21 -2 7 1 16 9 19 10 3 12 0 8 -12 -8 -23 7 -8 21 20 6 13
20 24 31 26 34 5 64 24 59 37 -3 8 5 11 24 10 25 -1 28 2 24 18 -4 15 -2 18 9
12 11 -7 11 -5 -1 10 -14 17 -13 18 1 13 22 -8 66 36 48 47 -8 6 -10 4 -4 -5
5 -9 4 -11 -4 -6 -6 4 -9 12 -5 17 3 6 8 8 11 5 11 -11 45 33 39 50 -5 14 -4
15 9 4 13 -10 15 -9 15 10 0 15 4 20 15 17 11 -5 12 -1 4 20 -8 22 -7 24 4 14
12 -9 13 -7 9 14 -2 14 0 25 7 25 5 0 8 -8 5 -17 -5 -15 -4 -15 6 1 10 15 9
20 -1 27 -10 6 -11 9 -1 9 6 0 12 8 12 18 0 15 2 15 11 2 8 -12 10 -9 6 12 -2
15 0 29 6 31 6 2 11 11 13 20 1 9 -2 15 -7 11 -5 -3 -9 0 -9 5 0 6 6 11 14 11
9 0 12 7 9 19 -3 10 1 22 8 26 8 6 10 4 4 -5 -5 -9 -4 -11 4 -6 6 4 8 12 5 18
-4 6 -7 26 -8 44 -1 27 1 30 13 21 12 -9 13 -9 7 1 -4 6 -4 18 0 24 10 15 13
89 4 83 -9 -5 -6 33 3 41 10 10 9 26 -1 20 -5 -3 -9 1 -9 9 0 8 4 12 8 9 5 -2
6 10 4 27 -2 18 -10 36 -17 40 -11 7 -11 9 0 9 10 0 10 3 0 14 -7 8 -17 11
-23 8 -5 -3 -4 2 3 11 8 9 11 20 8 26 -3 5 0 12 6 14 7 3 4 6 -7 6 -17 1 -17
3 -5 11 12 8 12 10 1 10 -10 0 -11 3 -2 14 9 11 8 15 -4 20 -11 4 -14 2 -9 -7
4 -6 3 -8 -1 -4 -17 15 -14 39 3 32 12 -4 10 1 -5 15 -24 21 -31 36 -13 25 6
-3 7 1 4 9 -3 9 -10 13 -15 10 -5 -3 -9 0 -9 5 0 6 6 11 13 11 6 0 4 5 -6 11
-9 5 -22 7 -27 4 -6 -4 -10 -3 -9 2 4 21 -2 34 -13 27 -7 -5 -8 -3 -3 6 6 10
11 10 20 -3 7 -10 16 -17 20 -17 5 0 1 8 -8 18 -10 10 -14 22 -10 26 5 4 1 6
-7 4 -10 -2 -14 4 -13 17 1 11 0 14 -3 8 -3 -7 -10 -13 -15 -13 -6 0 -7 4 -4
10 3 5 -4 17 -16 27 -12 10 -27 23 -34 30 -7 7 -15 9 -19 6 -3 -4 -6 -1 -6 5
0 7 5 12 12 12 6 0 3 6 -8 14 -12 10 -23 11 -31 5 -7 -7 -14 -6 -19 2 -4 7 -3
9 3 6 5 -3 10 0 10 7 0 8 -13 12 -34 11 -23 0 -32 3 -29 12 3 7 2 12 -2 12
-23 -4 -42 2 -37 12 4 6 1 9 -7 7 -7 -1 -27 7 -43 18 -18 13 -41 20 -58 18
-15 -1 -25 2 -22 7 4 5 -4 5 -19 -1 -19 -7 -29 -5 -41 6 -8 9 -15 12 -15 8 0
-3 -8 0 -17 7 -11 10 -14 10 -9 2 4 -7 3 -13 -3 -13 -5 0 -12 6 -14 13 -4 9
-6 8 -6 -2 -1 -11 -6 -10 -21 4 -17 16 -20 16 -15 3 5 -13 2 -15 -14 -11 -11
3 -18 10 -15 15 5 7 1 7 -11 1 -22 -13 -67 -4 -58 11 4 6 -2 4 -12 -4 -11 -9
-16 -10 -11 -2 11 18 -5 15 -21 -5 -8 -10 -12 -13 -9 -6 4 6 2 14 -4 18 -5 3
-10 1 -10 -6 0 -7 -7 -4 -15 7 -13 16 -14 16 -9 1 6 -15 3 -16 -21 -7 -33 12
-35 12 -35 -1 0 -5 5 -7 12 -3 7 4 8 3 4 -5 -4 -6 -13 -8 -19 -4 -18 11 -119
14 -112 4 3 -5 1 -13 -5 -16 -6 -4 -9 -3 -8 2 2 4 -2 8 -7 8 -6 0 -9 -4 -7 -8
1 -4 -6 -3 -16 2 -10 5 -24 6 -31 1 -8 -4 -27 -4 -42 0 -24 7 -29 5 -30 -8 0
-14 -2 -15 -7 -2 -4 8 -15 16 -24 16 -10 1 -15 -3 -11 -9 4 -7 0 -8 -12 -3
-15 5 -16 4 -5 -9 11 -14 10 -14 -14 -6 -19 8 -26 7 -26 -2 -1 -7 -6 -5 -14 6
-13 17 -14 16 -19 -3 -5 -18 -8 -19 -34 -8 -15 7 -31 17 -35 23 -5 7 -8 7 -8
0 0 -6 5 -16 11 -22 7 -7 2 -10 -21 -7 -20 2 -29 0 -24 -7 4 -8 1 -8 -13 0
-22 11 -76 5 -81 -10 -2 -5 -8 -9 -13 -9 -6 0 -8 4 -5 9 4 5 -2 8 -11 7 -9 -2
-19 -8 -21 -14 -2 -7 -8 -12 -13 -12 -6 0 -5 9 1 23 11 22 11 22 -7 2 -20 -22
-53 -29 -49 -11 2 6 1 8 -1 3 -3 -4 -9 -5 -14 -2 -5 4 -6 0 -4 -7 4 -9 -3 -14
-17 -15 -18 -2 -19 0 -8 7 11 7 10 9 -8 7 -14 -1 -21 -6 -17 -15 2 -7 1 -10
-4 -7 -5 3 -13 0 -17 -6 -5 -9 -11 -7 -21 6 -9 14 -13 15 -13 4 0 -12 -2 -12
-10 1 -7 11 -10 11 -10 2 0 -7 -4 -11 -9 -8 -5 4 -12 0 -14 -6 -4 -10 -6 -10
-6 0 -1 16 -48 16 -54 0 -4 -10 -6 -10 -6 -1 -1 7 -8 10 -18 6 -11 -4 -14 -3
-9 6 5 7 15 10 25 6 11 -4 13 -3 5 5 -14 14 -44 2 -44 -18 0 -13 -3 -12 -15 4
-14 19 -14 19 -11 -1 5 -25 -29 -32 -38 -8 -5 12 -9 13 -21 3 -8 -6 -19 -9
-25 -5 -5 3 -10 -1 -10 -10 0 -9 -5 -13 -10 -10 -7 4 -6 14 1 28 10 21 9 21
-5 3 -10 -12 -23 -17 -36 -13 -15 4 -18 2 -11 -6 7 -9 2 -12 -15 -13 -16 -1
-24 3 -24 15 0 13 -2 14 -9 1 -6 -8 -8 -17 -5 -21 2 -4 -6 -5 -18 -1 -14 3
-19 2 -14 -6 10 -16 -7 -15 -23 1 -9 8 -12 8 -7 0 7 -14 -12 -22 -37 -15 -10
3 -16 11 -13 18 3 8 0 11 -9 7 -8 -3 -12 -10 -8 -17 3 -6 2 -7 -3 -3 -5 5 -10
13 -10 18 -1 5 -2 10 -4 12 -7 8 -5 47 2 47 5 0 6 6 2 12 -12 19 -12 46 0 44
6 -2 8 -1 3 1 -4 3 -5 9 -2 14 4 5 -2 6 -12 2 -16 -6 -16 -5 -4 10 10 13 10
17 1 17 -9 0 -9 4 1 17 8 9 9 14 3 10 -7 -4 -14 0 -18 8 -3 8 0 15 7 15 7 0 3
8 -8 17 -20 15 -20 15 1 11 13 -3 21 0 21 8 0 7 -4 11 -8 9 -17 -11 -1 28 24
56 29 33 34 45 15 33 -7 -4 -8 -3 -4 5 6 9 12 9 24 -1 10 -7 14 -8 10 -4 -4 5
-2 16 5 24 9 13 9 14 0 8 -7 -4 -13 -2 -13 3 0 6 5 11 11 11 5 0 7 5 3 12 -5
8 -2 9 11 4 15 -5 16 -4 5 9 -10 12 -9 15 6 15 16 0 17 1 1 13 -13 9 -14 16
-6 27 9 13 10 12 5 -3 -3 -10 -2 -15 3 -12 15 9 8 45 -7 42 -8 -1 -16 6 -17
16 -2 9 1 15 6 11 5 -3 6 -10 3 -16 -4 -7 -2 -8 5 -4 17 11 -8 39 -28 31 -8
-3 -12 -3 -8 1 4 4 2 13 -5 21 -9 11 -7 12 8 8 13 -4 12 -2 -3 6 -13 7 -25 20
-28 31 -4 10 -11 15 -17 12 -7 -5 -9 -1 -5 9 4 11 -1 18 -16 23 -12 5 -26 7
-30 6 -4 -1 -3 7 4 19 6 12 7 19 1 15 -12 -7 -25 22 -15 36 3 7 1 8 -5 4 -7
-4 -12 -2 -12 3 0 6 -3 10 -7 10 -22 -4 -33 2 -27 14 5 7 2 7 -10 -2 -9 -8
-16 -10 -15 -5 1 5 1 15 0 23 -1 11 -4 11 -18 0 -15 -13 -15 -12 -4 10 11 19
11 22 0 16 -8 -6 -11 -4 -7 7 4 8 0 15 -8 15 -7 0 -11 -3 -9 -7 2 -4 -2 -7 -9
-7 -8 0 -11 8 -8 19 2 10 1 18 -4 17 -25 -4 -45 2 -38 13 4 7 3 8 -5 4 -6 -4
-9 -11 -7 -15 3 -4 -5 -7 -17 -6 -15 1 -23 9 -25 24 -3 22 -4 22 -17 4 -13
-16 -14 -15 -9 11 4 26 3 28 -11 16 -11 -9 -15 -9 -15 -1 0 9 -6 9 -22 0 -21
-11 -22 -11 -9 4 16 20 16 20 -26 8 -18 -5 -32 -6 -32 -3 4 27 -3 52 -12 46
-8 -4 -9 0 -4 15 4 14 2 21 -7 21 -10 0 -9 3 2 10 13 8 13 11 1 22 -11 11 -13
11 -6 -1 5 -9 4 -12 -3 -7 -9 5 -9 13 -2 27 6 10 9 19 8 20 -2 0 -11 2 -22 4
-10 2 -31 15 -45 29 -15 15 -30 24 -33 21 -2 -3 -5 2 -5 10 0 11 10 6 32 -15
17 -16 35 -30 40 -30 5 0 -1 7 -13 16 -12 8 -19 20 -16 26 4 7 2 8 -5 4 -6 -4
-14 0 -17 8 -3 9 -18 16 -32 16 -25 0 -25 1 -6 15 18 14 18 14 -4 10 -12 -2
-20 0 -17 5 3 5 -4 12 -16 15 -17 6 -19 9 -8 16 9 6 10 9 2 9 -7 0 -17 -8 -23
-17 -10 -15 -11 -15 -6 -1 6 20 -18 56 -28 40 -9 -15 -36 -3 -36 16 0 12 -3
13 -12 4 -15 -15 -32 -16 -22 -1 4 7 -2 10 -17 8 -13 -2 -30 0 -36 4 -7 5 -13
4 -13 -1 0 -10 -72 -8 -89 2 -6 4 -11 2 -11 -5 0 -8 -5 -7 -17 2 -11 10 -14
10 -9 2 7 -12 -12 -19 -38 -14 -5 1 -6 -6 -2 -16 6 -17 5 -17 -8 0 -14 18 -32
24 -21 7 3 -5 -2 -10 -12 -10 -15 0 -16 -2 -3 -10 12 -7 10 -9 -7 -7 -18 1
-20 4 -11 22 l11 20 -20 -20 c-11 -11 -19 -22 -17 -25 1 -3 -10 -6 -26 -5 -15
0 -26 3 -23 7 4 8 -5 10 -44 11 -15 0 -20 4 -15 15 3 10 1 13 -6 8 -6 -3 -13
-2 -16 3 -4 5 1 11 10 13 15 3 15 4 -1 18 -11 9 -16 10 -11 3 4 -7 5 -13 2
-13 -3 0 -10 9 -16 20 -9 16 -8 19 6 13 12 -4 15 -3 10 5 -4 7 -16 12 -27 12
-11 0 -17 5 -14 10 3 6 1 10 -5 10 -6 0 -8 5 -5 10 3 6 -1 10 -9 10 -9 0 -16
5 -16 11 0 5 5 7 10 4 6 -3 10 1 10 10 0 9 -4 13 -10 10 -5 -3 -12 6 -16 20
-3 14 -13 25 -23 25 -14 0 -14 2 -1 10 13 8 13 10 -2 10 -9 0 -20 9 -23 21 -6
17 -9 18 -22 7 -15 -12 -15 -11 -4 10 10 18 9 22 -4 22 -9 0 -13 5 -10 10 3 6
-3 10 -14 10 -15 0 -19 4 -14 17 5 12 3 14 -8 8 -12 -8 -12 -6 -1 8 8 9 11 21
7 27 -3 5 1 10 9 10 22 0 28 16 12 33 -11 11 -12 17 -3 27 10 10 7 10 -13 0
l-25 -13 20 23 20 23 -21 -11 c-17 -9 -25 -8 -38 7 -16 18 -13 31 8 31 6 0 5
-4 -3 -9 -8 -5 -9 -11 -3 -15 5 -3 13 1 16 9 4 10 -3 19 -19 25 -14 5 -25 12
-25 14 0 3 6 3 13 1 7 -3 13 5 14 21 0 15 7 30 15 35 10 6 10 9 1 9 -7 0 -13
5 -13 11 0 5 4 8 9 5 11 -7 8 21 -4 31 -4 4 -5 2 0 -6 5 -10 4 -12 -4 -7 -6 4
-9 12 -5 17 3 5 10 7 15 4 5 -4 9 -2 9 4 0 5 -6 12 -12 14 -10 4 -10 6 0 6 6
1 12 6 12 12 0 5 -5 7 -11 4 -6 -4 -5 2 2 13 7 12 18 18 24 16 5 -3 1 2 -9 10
-15 12 -16 16 -5 16 8 0 10 3 4 8 -5 4 -10 14 -10 22 0 9 -7 14 -20 12 -19 -3
-19 -3 -2 10 17 13 17 15 3 27 -8 7 -20 10 -26 6 -6 -4 -10 4 -10 20 0 15 -4
24 -10 20 -18 -11 -11 7 17 44 31 40 37 61 20 62 -7 0 -3 4 8 9 18 8 19 9 1 9
-11 1 -16 6 -13 15 8 20 -4 28 -21 13 -13 -10 -15 -9 -9 7 5 14 3 17 -8 13
-18 -7 -30 9 -14 19 8 5 9 3 4 -6 -5 -9 -4 -11 4 -6 17 11 4 25 -20 21 -18 -4
-19 -2 -7 12 9 12 9 15 1 9 -9 -5 -13 0 -13 14 0 14 -5 20 -13 17 -8 -3 -14 1
-14 8 0 8 7 11 16 7 13 -5 14 -4 1 10 -8 8 -22 13 -30 10 -9 -3 -7 2 5 12 13
11 14 16 5 13 -12 -4 -15 6 -15 49 0 44 3 53 15 49 9 -3 7 1 -4 10 -20 15 -20
15 0 16 15 1 14 3 -6 9 -17 6 -19 8 -7 9 15 1 16 4 6 24 -11 20 -11 21 4 9 13
-11 15 -10 10 9 -5 19 -4 20 15 10 18 -10 20 -9 17 8 -3 14 1 18 11 14 17 -6
18 1 4 28 -8 13 -7 19 0 19 6 0 8 5 5 10 -4 6 -12 8 -18 4 -7 -3 -5 0 3 8 8 7
14 24 12 37 -2 15 0 21 7 17 7 -4 8 -1 5 8 -3 9 -9 14 -13 12 -3 -2 -6 15 -6
39 0 39 2 42 18 33 16 -8 17 -7 10 9 -13 27 -8 110 8 130 9 11 10 14 1 9 -16
-9 -11 26 6 47 9 11 10 17 2 22 -8 5 -8 11 1 21 6 8 8 14 4 14 -4 0 -1 7 6 16
8 9 12 27 11 40 -2 15 3 24 15 27 16 4 17 5 1 6 -21 1 -23 12 -6 29 9 9 9 12
0 12 -7 0 -12 5 -12 11 0 5 5 7 11 3 7 -4 10 -1 7 7 -3 8 -10 13 -16 12 -6 -2
-9 4 -5 12 4 13 8 13 21 3 13 -11 14 -11 7 2 -13 20 -13 30 -3 59 6 17 5 27
-4 34 -9 6 -8 7 5 3 12 -4 17 -2 14 6 -2 7 3 19 12 26 14 12 14 13 -3 8 -15
-5 -17 -4 -8 7 7 8 8 18 4 23 -4 4 0 3 10 -4 12 -10 18 -10 24 -1 4 7 3 9 -3
6 -6 -4 -13 2 -16 13 -4 14 0 20 11 21 14 0 13 2 -3 9 -11 5 -14 9 -7 9 9 1
10 6 4 19 -5 9 -7 23 -4 31 2 7 0 16 -6 20 -5 3 -12 22 -13 41 -2 19 -12 44
-21 54 -10 11 -18 28 -18 38 0 16 -3 17 -22 7 -20 -11 -21 -10 -11 3 7 8 10
18 6 21 -3 4 -12 -1 -20 -11 -10 -14 -12 -14 -8 -1 3 9 -1 22 -9 29 -9 7 -14
16 -11 20 3 5 0 12 -6 16 -8 4 -9 3 -5 -4 4 -7 2 -12 -3 -12 -6 0 -11 5 -11
10 0 6 -7 10 -16 10 -8 0 -13 4 -10 9 3 5 -1 11 -9 14 -9 4 -12 1 -8 -9 3 -7
0 -14 -7 -14 -6 0 -9 4 -6 9 3 4 -2 17 -10 27 -12 14 -14 15 -11 3 3 -9 -1
-16 -9 -16 -8 0 -12 3 -9 5 3 3 0 11 -6 19 -10 11 -15 11 -27 1 -13 -10 -14
-10 -8 0 4 7 1 12 -8 12 -9 0 -16 5 -16 10 0 6 -5 10 -11 10 -5 0 -8 -4 -4 -9
3 -5 0 -13 -6 -17 -8 -4 -9 -3 -5 4 4 7 2 12 -4 12 -6 0 -9 4 -6 8 3 5 -8 6
-25 4 -19 -3 -29 0 -29 8 0 8 -8 10 -21 7 -11 -3 -22 0 -25 7 -2 6 -16 13 -31
14 -15 1 -30 8 -35 15 -6 9 -8 8 -8 -3 0 -13 -1 -13 -10 0 -5 8 -10 11 -10 6
0 -6 -5 -5 -11 1 -6 6 -18 9 -25 6 -12 -4 -18 6 -16 28 0 3 -10 5 -23 5 -13 0
-21 -4 -19 -8 3 -5 9 -6 14 -3 5 3 11 1 14 -4 11 -16 -26 -5 -39 12 -14 20
-30 23 -19 5 5 -8 0 -7 -11 2 -17 14 -18 13 -11 -4 7 -19 6 -19 -14 -1 -15 14
-20 15 -21 4 0 -8 -4 -6 -9 6 -8 18 -9 18 -10 -5 -2 -17 -4 -19 -7 -8 -3 11
-10 15 -20 11 -10 -4 -14 -2 -10 4 3 5 0 10 -8 10 -8 0 -12 -4 -9 -9 3 -4 0
-8 -5 -8 -6 0 -11 8 -12 18 0 10 -3 12 -6 5 -2 -7 -9 -13 -14 -13 -6 0 -7 6
-3 13 6 9 4 9 -7 1 -17 -14 -89 -6 -90 10 0 6 -4 2 -9 -9 -8 -18 -9 -18 -9 -2
-1 10 -5 15 -11 12 -5 -3 -10 -2 -10 2 0 16 -60 9 -60 -7 -1 -12 -3 -11 -11 3
-5 9 -15 17 -20 17 -6 0 -7 -6 -3 -12 5 -9 2 -9 -9 1 -9 7 -17 9 -17 4 0 -5
-9 -9 -19 -9 -11 0 -17 4 -15 8 10 16 -9 8 -22 -9 -10 -13 -12 -13 -9 -3 4 12
-4 15 -35 16 -22 0 -40 -4 -40 -9 0 -6 -5 -6 -12 0 -7 6 -19 8 -26 6z m1206
-1852 c-13 -14 -24 -28 -25 -30 -2 -2 -3 1 -3 7 0 7 9 20 19 29 11 9 17 21 14
26 -4 6 -1 7 6 2 9 -5 6 -14 -11 -34z m-2754 -1436 c-4 -8 -10 -12 -15 -9 -11
6 -2 24 11 24 5 0 7 -7 4 -15z m4533 -707 c-3 -8 -6 -5 -6 6 -1 11 2 17 5 13
3 -3 4 -12 1 -19z m1728 -27 c3 -5 2 -12 -3 -15 -5 -3 -9 1 -9 9 0 17 3 19 12
6z m42 -66 c0 -8 -4 -12 -9 -9 -5 3 -6 10 -3 15 9 13 12 11 12 -6z m-7042 -25
c3 -5 1 -10 -4 -10 -6 0 -11 5 -11 10 0 6 2 10 4 10 3 0 8 -4 11 -10z m-1140
-269 c3 -5 2 -12 -3 -15 -5 -3 -9 1 -9 9 0 17 3 19 12 6z m8155 -755 c0 -3 -4
-8 -10 -11 -5 -3 -10 -1 -10 4 0 6 5 11 10 11 6 0 10 -2 10 -4z m-69 -69 c-10
-9 -11 -8 -5 6 3 10 9 15 12 12 3 -3 0 -11 -7 -18z m-8304 -11 c-3 -8 -1 -17
6 -20 9 -3 9 -5 0 -5 -15 -1 -26 16 -18 29 9 15 18 12 12 -4z m8256 -27 c-8
-8 -13 -7 -18 2 -5 8 -4 10 3 5 7 -4 12 -2 12 5 0 7 3 9 7 6 4 -4 2 -12 -4
-18z m-294 -142 c-2 -2 -12 -9 -21 -16 -15 -11 -18 -11 -18 1 0 7 10 14 21 15
12 1 20 1 18 0z m-939 -31 c0 -3 -4 -8 -10 -11 -5 -3 -10 -1 -10 4 0 6 5 11
10 11 6 0 10 -2 10 -4z m-303 -28 c-3 -8 -6 -5 -6 6 -1 11 2 17 5 13 3 -3 4
-12 1 -19z m-542 -16 c-3 -3 -11 0 -18 7 -9 10 -8 11 6 5 10 -3 15 -9 12 -12z
m-5821 -158 c3 -8 2 -12 -4 -9 -6 3 -10 10 -10 16 0 14 7 11 14 -7z m5196
-240 c0 -8 -19 -13 -24 -6 -3 5 1 9 9 9 8 0 15 -2 15 -3z m-2946 -320 c3 -8 2
-12 -4 -9 -6 3 -10 10 -10 16 0 14 7 11 14 -7z m-1074 -390 c0 -8 -5 -12 -10
-9 -6 4 -8 11 -5 16 9 14 15 11 15 -7z m50 -569 c0 -2 -9 -3 -19 -2 -11 0 -18
5 -15 9 4 6 34 0 34 -7z"/>
<path d="M4147 7819 c7 -7 15 -10 18 -7 3 3 -2 9 -12 12 -14 6 -15 5 -6 -5z"/>
<path d="M4916 7568 c3 -4 11 -5 19 -1 21 7 19 12 -4 10 -11 0 -18 -5 -15 -9z"/>
<path d="M4986 7498 c3 -4 9 -8 15 -8 5 0 9 4 9 8 0 5 -7 9 -15 9 -8 0 -12 -4
-9 -9z"/>
<path d="M2710 5746 c0 -2 8 -10 18 -17 15 -13 16 -12 3 4 -13 16 -21 21 -21
13z"/>
<path d="M6437 4125 c-10 -14 -15 -25 -12 -25 6 0 45 38 45 45 0 12 -17 2 -33
-20z"/>
<path d="M7736 3982 c-3 -4 4 -9 15 -9 23 -2 25 3 4 10 -8 4 -16 3 -19 -1z"/>
<path d="M7360 3946 c0 -3 9 -10 20 -16 11 -6 20 -8 20 -6 0 3 -9 10 -20 16
-11 6 -20 8 -20 6z"/>
<path d="M8155 3940 c3 -5 8 -10 11 -10 2 0 4 5 4 10 0 6 -5 10 -11 10 -5 0
-7 -4 -4 -10z"/>
<path d="M6906 3878 c3 -5 10 -6 15 -3 13 9 11 12 -6 12 -8 0 -12 -4 -9 -9z"/>
<path d="M6980 3869 c0 -5 5 -7 10 -4 6 3 10 8 10 11 0 2 -4 4 -10 4 -5 0 -10
-5 -10 -11z"/>
<path d="M6435 3861 c-3 -5 -2 -12 3 -15 5 -3 9 1 9 9 0 17 -3 19 -12 6z"/>
<path d="M2093 3795 c4 -5 0 -16 -8 -25 -14 -16 -14 -18 0 -24 10 -3 14 -2 10
5 -4 5 -2 16 5 24 8 10 8 15 -2 21 -7 4 -10 3 -5 -1z"/>
<path d="M816 3735 c-3 -8 -1 -15 4 -15 6 0 10 7 10 15 0 8 -2 15 -4 15 -2 0
-6 -7 -10 -15z"/>
<path d="M1503 3735 c0 -7 6 -11 14 -8 7 3 13 6 13 8 0 2 -6 5 -13 8 -8 3 -14
-1 -14 -8z"/>
<path d="M1545 3739 c-4 -6 -5 -12 -2 -15 2 -3 7 2 10 11 7 17 1 20 -8 4z"/>
<path d="M8305 2550 c-3 -5 -2 -10 4 -10 5 0 13 5 16 10 3 6 2 10 -4 10 -5 0
-13 -4 -16 -10z"/>
<path d="M7850 2419 c0 -5 5 -7 10 -4 6 3 10 8 10 11 0 2 -4 4 -10 4 -5 0 -10
-5 -10 -11z"/>
<path d="M7015 2400 c-4 -6 -10 -8 -14 -6 -4 3 -8 -1 -8 -9 0 -13 3 -13 17 0
9 8 20 12 25 8 4 -5 5 -2 1 5 -9 15 -13 15 -21 2z"/>
<path d="M7176 2387 c3 -10 9 -15 12 -12 3 3 0 11 -7 18 -10 9 -11 8 -5 -6z"/>
<path d="M1506 2252 c-2 -4 4 -8 14 -8 10 0 16 4 14 8 -3 4 -9 8 -14 8 -5 0
-11 -4 -14 -8z"/>
<path d="M367 2239 c7 -7 15 -10 18 -7 3 3 -2 9 -12 12 -14 6 -15 5 -6 -5z"/>
<path d="M395 2220 c-3 -5 -1 -10 4 -10 6 0 11 5 11 10 0 6 -2 10 -4 10 -3 0
-8 -4 -11 -10z"/>
<path d="M1075 2220 c3 -5 8 -10 11 -10 2 0 4 5 4 10 0 6 -5 10 -11 10 -5 0
-7 -4 -4 -10z"/>
<path d="M5487 1635 c-4 -8 -3 -16 1 -19 4 -3 9 4 9 15 2 23 -3 25 -10 4z"/>
<path d="M1516 1243 c-6 -14 -5 -15 5 -6 7 7 10 15 7 18 -3 3 -9 -2 -12 -12z"/>
<path d="M2565 1190 c-3 -5 -1 -10 4 -10 6 0 11 5 11 10 0 6 -2 10 -4 10 -3 0
-8 -4 -11 -10z"/>
<path d="M4095 1060 c3 -5 8 -10 11 -10 2 0 4 5 4 10 0 6 -5 10 -11 10 -5 0
-7 -4 -4 -10z"/>
<path d="M910 1020 c0 -5 5 -10 11 -10 5 0 7 5 4 10 -3 6 -8 10 -11 10 -2 0
-4 -4 -4 -10z"/>
<path d="M2446 933 c-6 -14 -5 -15 5 -6 7 7 10 15 7 18 -3 3 -9 -2 -12 -12z"/>
</g>
</svg>
